<svg xmlns="http://www.w3.org/2000/svg" viewBox="0 0 272.03 43.36"><defs><style>.a{fill:#008223;}</style></defs><title>logo</title><path class="a" d="M20.91,0A20.23,20.23,0,0,1,28,1.26a1.19,1.19,0,0,0,.26.11,11.5,11.5,0,0,1,3.85,1.71,19.31,19.31,0,0,1,3,2.22A28.23,28.23,0,0,1,38.5,9a20.69,20.69,0,0,1,3.63,7.91,14.9,14.9,0,0,0,.41,1.45c.28.84-.12,1.77-1.48,1.64a5.66,5.66,0,0,1-.92-.13,1.54,1.54,0,0,0-1.4.35,1.1,1.1,0,0,0,.2,2,3.15,3.15,0,0,0,1.75.27,3.4,3.4,0,0,1,1.19.07,1,1,0,0,1,.77,1.07A11.25,11.25,0,0,1,42.47,25a22.5,22.5,0,0,1-1.59,5.28,24.07,24.07,0,0,1-1.79,3.11,29.18,29.18,0,0,1-2,2.7A16.6,16.6,0,0,1,35.21,38a23.42,23.42,0,0,1-6.28,3.85A20.45,20.45,0,0,1,24,43.12a15.27,15.27,0,0,1-2.43.24,21.42,21.42,0,0,1-6.83-1.15,20.25,20.25,0,0,1-8.1-5.06,25,25,0,0,1-3.72-4.81A24.75,24.75,0,0,1,0,24c-.19-1,.3-1.59,1.38-1.58.62,0,1.24.11,1.86.08a3.49,3.49,0,0,0,1.31-.31,1,1,0,0,0,.14-1.83,3.25,3.25,0,0,0-2.26-.5c-.38,0-.75.12-1.13.15-1,.06-1.53-.57-1.28-1.49A32.2,32.2,0,0,1,2.35,12,21.7,21.7,0,0,1,10,3.48,20.91,20.91,0,0,1,18.21.33C19.27.17,20.34.07,20.91,0ZM11.3,15.41v0c-.64,0-1.29,0-1.94,0A1.29,1.29,0,0,0,8,16.77c-.07,1.15-.14,2.3-.14,3.44,0,1.75,0,3.5.09,5.24,0,1.28.52,1.81,1.8,1.83s2.29-.08,3.44-.13c.48,0,1,0,1.44,0a1,1,0,0,1,1.08.85,9.17,9.17,0,0,1,.15,1.57c0,.52-.07,1-.08,1.57,0,.72-.06,1.44-.05,2.16,0,.5.07,1,.1,1.5a7.79,7.79,0,0,1,.07,1.07c0,.69-.39,1-1.07,1a2.49,2.49,0,0,1-1-.37c-.48-.31-.89-.73-1.37-1a13.07,13.07,0,0,1-4.36-4.2c-.56-.88-1-1.86-1.51-2.77a6.59,6.59,0,0,1-.82-2.35,4.36,4.36,0,0,0-.37-1.16A1.47,1.47,0,0,0,3.56,24a1.28,1.28,0,0,0-1,1.68A8.63,8.63,0,0,0,3,27.09a21.35,21.35,0,0,0,2.31,5.08,17.64,17.64,0,0,0,2.91,3.64c1,.86,2.09,1.66,3.19,2.43A17.06,17.06,0,0,0,21,41.19a20.78,20.78,0,0,0,3.85-.33,17.37,17.37,0,0,0,7.45-3.22,20.31,20.31,0,0,0,7.27-10,15.22,15.22,0,0,0,.56-2.08,1.23,1.23,0,0,0-.76-1.46,1.15,1.15,0,0,0-1.48.9s0,.09,0,.14A18.23,18.23,0,0,1,37.05,28a12.38,12.38,0,0,1-2.29,4.11,17.45,17.45,0,0,1-5.36,4.4,3.2,3.2,0,0,1-1.22.36.92.92,0,0,1-1.06-1c0-.18,0-.38.05-.57.06-.78.14-1.57.16-2.35,0-.5-.06-1-.07-1.51,0-.87,0-1.75,0-2.62C27.16,27.4,27.53,27,29,27.1l3.66.15a8.42,8.42,0,0,1,1,.08,1.69,1.69,0,0,0,2.12-1.71c0-.41,0-.82,0-1.22,0-1.82,0-3.64,0-5.46a14.48,14.48,0,0,0-.16-2.28,1.56,1.56,0,0,0-1.81-1.36l-.43,0c-.54.05-1.09.1-1.64.13-.84,0-1.67.08-2.51.09a4.72,4.72,0,0,1-1.13-.13,1.24,1.24,0,0,1-.91-1.38,29.12,29.12,0,0,0,.18-4.57c0-.76-.11-1.52-.11-2.29s.43-1.11,1.22-.82c.16.06.3.14.46.21a20.43,20.43,0,0,1,3.78,2.46,9.55,9.55,0,0,1,1.61,1.63,18.51,18.51,0,0,1,1.44,2.06,18.73,18.73,0,0,1,1.9,4.32A3.76,3.76,0,0,0,38,18a1.22,1.22,0,0,0,1.19.51c.42,0,.59-.36.74-.7a1.54,1.54,0,0,0,0-1.19c-.17-.45-.35-.89-.54-1.33A23,23,0,0,0,36.65,10a20.7,20.7,0,0,0-6-5.36,16.23,16.23,0,0,0-4-1.73,21.28,21.28,0,0,0-5.34-.52,27.58,27.58,0,0,0-3.63.27A12.13,12.13,0,0,0,13.41,4,20.51,20.51,0,0,0,7,9a19.12,19.12,0,0,0-2.79,4.34c-.49,1-.91,2.12-1.36,3.17a1.33,1.33,0,0,0,.25,1.65,1.5,1.5,0,0,0,2.61-.76,8.41,8.41,0,0,1,1.23-3,1.59,1.59,0,0,0,.07-.2,13.27,13.27,0,0,1,3.15-4.33c1.06-1,2.23-1.81,3.37-2.68a3.59,3.59,0,0,1,1-.54.8.8,0,0,1,1.19.64,8.42,8.42,0,0,1,.12,1.42c0,.48-.09,1-.08,1.43,0,1.37.07,2.73.08,4.1a1.22,1.22,0,0,1-1.3,1.39h-.58Z"/><path class="a" d="M27.7,18.69l3.36-.18c.22,0,.43,0,.65,0a1.1,1.1,0,0,1,1,.75,4.37,4.37,0,0,1,.13,2.48c-.2.79-.71,1.05-1.66,1s-1.82-.09-2.72-.13-2-.08-3-.1-1.39.34-1.51,1.33a3.1,3.1,0,0,0,0,.86c.26,2.15.08,4.31.13,6.47a13.76,13.76,0,0,1,0,1.7c-.05.58-.35.94-.9,1A19.48,19.48,0,0,1,20,33.74c-.83-.1-1-.44-1-1.28,0-1.32.17-2.63.12-3.95s.05-2.43.06-3.64a9.72,9.72,0,0,0-.12-1.21,1.2,1.2,0,0,0-1.13-1.11,8.82,8.82,0,0,0-1.36,0c-.77,0-1.53.07-2.3.09-1,0-1.91.05-2.87.05A1.25,1.25,0,0,1,10,21.39a8.35,8.35,0,0,1,.17-1.93,1.17,1.17,0,0,1,1.33-.95c1.62,0,3.25.09,4.87.15.24,0,.47.07.71.08,1.55,0,2.39-.56,2.17-2.31-.08-.64-.16-1.28-.18-1.92s.08-1.1.07-1.65c0-.91-.08-1.81-.13-2.72-.07-1.24.26-1.6,1.51-1.61h2.31c.94,0,1.36.43,1.35,1.35,0,1.65-.05,3.3-.09,4.95,0,.74-.12,1.48-.13,2.22,0,1.2.39,1.6,1.59,1.6.72,0,1.43,0,2.15,0Z"/><path class="a" d="M69.43,22.93a3.68,3.68,0,0,1,1.35,1.87c0,.45-.33.68-.93.68-1.5-.15-3-.23-4.42-.25-4.43.05-9.2.35-14.3.87-.7,0-1.55-.77-2.52-2.3,0-.15.1-.25.32-.25,1.85,0,4.08-.15,6.7-.4,0-1.7-.05-2.75-.1-3.15a.36.36,0,0,0-.4-.27,4.69,4.69,0,0,0-1.32.35,9.85,9.85,0,0,1-1,.45c-.23,0-.58-.23-1-.68a1.59,1.59,0,0,1-.45-.77,3.83,3.83,0,0,1,.18-.9,2.77,2.77,0,0,0,.12-.55c-.12-2.58-.42-3.95-.87-4.15a2.07,2.07,0,0,1-.75-.53c0-.15.12-.35.4-.57a3.11,3.11,0,0,1,.92-.48,3.93,3.93,0,0,1,.93.13,5.3,5.3,0,0,1,1.15.35l.17.1a7,7,0,0,0,.9-.1,7.4,7.4,0,0,0,.93-.2c0-1,0-1.95,0-2.85a1.55,1.55,0,0,0,0-.42l-.4,0c-.8,0-1.77-.77-2.95-2.12,0-.2.08-.3.28-.3A64.6,64.6,0,0,0,59,5.88a15.27,15.27,0,0,0,3.13-.72,7.89,7.89,0,0,1,1.65-.35c1.37.25,2.22.8,2.52,1.7,0,.67-.47,1.1-1.37,1.27-.58.1-1.15.2-1.7.28a.74.74,0,0,1,.07.32A1.63,1.63,0,0,1,63,9c-.12.55-.22,1.1-.3,1.69s.18.85.53.85a12.85,12.85,0,0,0,1.4-.39A4.32,4.32,0,0,1,65.8,11,5.78,5.78,0,0,1,68,12c.52.35.82.68.87,1a1.82,1.82,0,0,1-.5,1.12,6.79,6.79,0,0,0-1.27,2.7,2.4,2.4,0,0,1-.4.6,3.05,3.05,0,0,1,.6.8c0,.35-.23.5-.63.5-1,.1-1.87.23-2.77.33a1.21,1.21,0,0,1-.43-.05q-.3,1.53-.6,3.45c.45,0,.88-.08,1.28-.13,1.3-.12,2.32-.2,3.05-.22A5.45,5.45,0,0,1,69.43,22.93ZM64.65,13.6c0-.1-.07-.2-.22-.3a9.14,9.14,0,0,0-1.68.45,3,3,0,0,1-1.35.45,2,2,0,0,1-2.09-1.55,2.11,2.11,0,0,1,.3-1,5.23,5.23,0,0,0,.22-1.5,4.81,4.81,0,0,0-.25-1.69c-.35.05-.68.07-1,.1a.92.92,0,0,1,.23.55c0,.07-.08.17-.2.27-.25.85-.5,1.85-.73,3a1.62,1.62,0,0,1,.63,1c0,.33-.06.48-.11.48s-.27.12-.52.12a2.88,2.88,0,0,1-.82.1l-1,.25a8.69,8.69,0,0,0-1.27.35.7.7,0,0,1-.33-.07l.28,3a6,6,0,0,0,2.2-.73,4.47,4.47,0,0,1,1.54.58,1.23,1.23,0,0,1,.63.95,4.18,4.18,0,0,1-.43,1.3,22.81,22.81,0,0,0-.2,3.17h.11l1.52-.15c0-1.5,0-2.92,0-4.22,0-.6-.15-.95-.4-1.08s-.27,0-.27-.1c0-.32.4-.55,1.25-.67a5.22,5.22,0,0,1,1.82.4,6.11,6.11,0,0,0,1.43-.58s.07,0,.12,0A24,24,0,0,1,64.65,13.6Z"/><path class="a" d="M89.63,6.93c0,.68-.48,1.1-1.38,1.28s-1.87.42-2.77.57a5.78,5.78,0,0,0,0,.72l.93-.14c1.25-.16,2-.25,2.32-.33a6.87,6.87,0,0,1,2.43.9C92,10.5,92.4,11,92.4,11.38a1.17,1.17,0,0,1-.17.47c-.25.28-.45.5-.58.68-.42,1.07-.9,2.27-1.4,3.6-.32,1.12-.85,1.67-1.55,1.67a2.09,2.09,0,0,1-1.42-.65,9.54,9.54,0,0,1-1.15.08c.32.27.67.57,1.05.87a20,20,0,0,0,4.92,3.23c2.6,1,3.93,1.5,3.93,1.65s-.73.55-2.18.8a20,20,0,0,1-4.07.65c-.58,0-1.38-.73-2.38-2.23-.75-1.1-1.45-2.1-2.05-3,0,1.35,0,2.73,0,4.08A6,6,0,0,1,84.83,26a1.73,1.73,0,0,1-1.47.9c-.85-.35-1.4-1.25-1.6-2.75.1-1.2.2-2.32.25-3.4a18.44,18.44,0,0,1-8.13,3.85q-.3,0-.3-.15c3.85-2.75,6.28-4.92,7.33-6.5a.9.9,0,0,1-.48-.15,1,1,0,0,1-1.07.73c-.7,0-1.18-.5-1.43-1.53-.37-1.55-.7-2.9-1-4a6.74,6.74,0,0,0-.55-1.5,1,1,0,0,0-.57-.23c-.25,0-.35,0-.35-.12.15-.4.62-.72,1.45-1a7.16,7.16,0,0,1,2,.27l.33.08c1-.11,2-.25,3.07-.41V9.25a17.14,17.14,0,0,1-1.77.2c-.8,0-1.8-.77-3-2.12,0-.17.07-.27.25-.27a35.6,35.6,0,0,0,4.34-.5A3.56,3.56,0,0,0,82,5.48a.89.89,0,0,0-.4-.62c-.35-.08-.53-.2-.58-.35,0-.4.45-.73,1.4-1a12.38,12.38,0,0,1,2.52.58c.6.32.9.72.9,1.17,0,.1,0,.23,0,.33a6.3,6.3,0,0,1,1.35-.4A2.87,2.87,0,0,1,89.63,6.93Zm-7.35,6c0-.15,0-.3,0-.42V12l-2,.38c0,.12,0,.25,0,.35s0,.3,0,.45C81,13.13,81.63,13.05,82.28,13Zm-.1,2.78c0-.3,0-.58,0-.85a15.07,15.07,0,0,1-1.55.17.65.65,0,0,1-.22,0v.15c0,.25,0,.47,0,.67C81,15.83,81.58,15.78,82.18,15.73Zm3.12-3.2c.8-.13,1.6-.25,2.43-.4a1.55,1.55,0,0,1,0-.35c0-.28-.2-.43-.6-.43l-1.83.2C85.33,11.88,85.3,12.2,85.3,12.53Zm0,2.85,1.57-.23c.1,0,.2,0,.3,0,.08-.33.15-.65.23-1-.75.13-1.45.23-2.1.33Z"/><path class="a" d="M102.46,23.1a1.67,1.67,0,0,1-1.9,1.85c-.35,0-.58-.47-.73-1.4a7.37,7.37,0,0,0-1.1-2.82.23.23,0,0,1,.25-.25C101.26,20.53,102.41,21.4,102.46,23.1Zm2.67-17.39A1.82,1.82,0,0,1,106,7a1.4,1.4,0,0,1-.67,1.25,13.93,13.93,0,0,1-1.58,2c-.47.63-.92,1.2-1.35,1.73l2.25-.37a3.42,3.42,0,0,0,.43-1.05c0-.5-.15-.75-.43-.75,0-.25.38-.43,1.15-.55a3.63,3.63,0,0,1,1.65.85,1.74,1.74,0,0,1,.85,1.25,1.42,1.42,0,0,1-.9,1.29,17,17,0,0,1-2.12,2.13c2,.15,3.07.87,3.12,2.17a1.42,1.42,0,0,1-1.62,1.6c-.38,0-.65-.25-.83-.8a35.56,35.56,0,0,0-5.35,1.75c-.55,0-.95-.8-1.15-2.42,0-.7.28-1.08.88-1.13a8.16,8.16,0,0,0,2.77-2.32,17.68,17.68,0,0,0-2.92,1.12c-.53,0-.9-.77-1.13-2.35,0-.67.18-1,.55-1a6.51,6.51,0,0,0,1.83-2.3,8.7,8.7,0,0,0,1.2-2.9c0-.55-.18-.83-.5-.83,0-.22.4-.42,1.25-.57A4.27,4.27,0,0,1,105.13,5.71ZM105.36,22a1.51,1.51,0,0,1-1.73,1.7c-.3,0-.5-.4-.65-1.23a6.75,6.75,0,0,0-1-2.5c0-.12.07-.2.22-.2C104.28,19.78,105.31,20.53,105.36,22Zm-.58-6.6-1.25,1.27c.55,0,1.2-.12,1.9-.22A5.71,5.71,0,0,0,104.78,15.38Zm3.45,5.45a1.48,1.48,0,0,1-1.67,1.65c-.33,0-.55-.35-.7-1.1a6.54,6.54,0,0,0-1.08-2.3c0-.15,0-.23.2-.23C107.11,18.9,108.18,19.55,108.23,20.83ZM116.88,7c1.15.5,1.75,1,1.75,1.43a.78.78,0,0,1-.3.65,1.9,1.9,0,0,0-.58,1.3c-.25.94-.5,1.92-.7,2.92a1.8,1.8,0,0,1,.68,1.07c0,.48,0,.7-.15.7a1.22,1.22,0,0,1-.8.18,5.17,5.17,0,0,1-1.23.15l-1.55.3a9.11,9.11,0,0,0-2,.55.55.55,0,0,1,0,.12,20.82,20.82,0,0,0-.2,3.4c0,1,.15,1.65.45,1.88.3.42,1.43.62,3.38.62a3.54,3.54,0,0,0,1.65-.42c.5-.3.8-1.4.9-3.35,0-.3.1-.45.22-.45s.1.15.2.45a7.19,7.19,0,0,0,1.13,2.67c.8.73,1.2,1.3,1.2,1.75a1.88,1.88,0,0,1-1.33,1.63,6.39,6.39,0,0,1-3.35.72c-3.35,0-5.4-.45-6.17-1.3-.85-.6-1.27-2.1-1.27-4.47,0-.9,0-2.23.17-4,0-.87-.28-1.32-.8-1.32,0-.13.43-.38,1.32-.78a7.64,7.64,0,0,1,1.23.43,17.35,17.35,0,0,0,1.8-.28l1-.22a17.13,17.13,0,0,0,.45-3c0-.34-.15-.52-.4-.52-.92.27-1.92.6-3,1-.53,0-1.27-.72-2.25-2.17,0-.15.1-.22.35-.22a18.78,18.78,0,0,0,4-1,16.64,16.64,0,0,1,2.07-.75A5.5,5.5,0,0,1,116.88,7Z"/><path class="a" d="M134.55,4.36a3,3,0,0,1,1.15,1.85,18.56,18.56,0,0,1,1.38,1.27,17.18,17.18,0,0,0,4.4,3.68,19.59,19.59,0,0,0,2.62,1.37,8.18,8.18,0,0,1,2.05,1.05c-.05.25-.35.4-.92.47a23.08,23.08,0,0,1-5.15.43c-.75,0-1.55-.65-2.4-2s-1.88-3-3-4.72A21.36,21.36,0,0,1,132.81,10c1.72.18,2.59.6,2.64,1.28a1.56,1.56,0,0,1-1.8,1.75c-.47,0-.82-.3-1-.93a7,7,0,0,0-.75-1.14,21.14,21.14,0,0,1-8.38,4.94c-.25,0-.35-.1-.35-.32q6.75-5.7,8.63-10.65c0-.55-.2-.85-.6-.85,0-.15.45-.35,1.4-.6A3,3,0,0,1,134.55,4.36Zm-6.27,17.87c-.6,2.2-1.45,3.3-2.57,3.3-.9,0-1.43-.73-1.58-2.15a2.5,2.5,0,0,1,1.13-1.2,3.24,3.24,0,0,0,1.5-1.88c.15-.3.3-.47.45-.47A2.76,2.76,0,0,1,128.28,22.23Zm9.77-8.1c.83.6,1.25,1.1,1.25,1.52s-.55.93-1.62,1.23A29.2,29.2,0,0,1,134,18.7c-.25,0-.35-.1-.35-.3A19.57,19.57,0,0,0,135,15.75c0-.12-.1-.2-.27-.2-.85.08-1.62.18-2.3.3a7.89,7.89,0,0,0-1.05.23,2.6,2.6,0,0,1-.75.17,1.79,1.79,0,0,1-.92-.45c-.9-.7-1.33-1.12-1.33-1.3a.4.4,0,0,1,.18-.35A34.81,34.81,0,0,0,136,13.1,6.5,6.5,0,0,1,138.05,14.13Zm-6.37,6.3c.3,1.87,1.88,2.82,4.67,2.85a2,2,0,0,0,1.45-.4c.13-.05.2-.25.2-.6s-.05-.7-.1-1.3a.16.16,0,0,1,.18-.18l2.27,1.93c1,.6,1.43,1.12,1.43,1.57-.15,1.3-1.7,2-4.65,2.13A8.16,8.16,0,0,1,131.91,25a6.41,6.41,0,0,1-2.2-3.88,1.33,1.33,0,0,0-.88-.77c0-.2.38-.43,1.13-.68C131.11,19.73,131.68,20,131.68,20.43Zm5.32-.05a1.58,1.58,0,0,1-1.82,1.77c-.5,0-.85-.32-1.1-1a5.07,5.07,0,0,0-1.7-2.1.23.23,0,0,1,.25-.25C135.48,18.83,137,19.35,137,20.38Zm7.88.45A1.64,1.64,0,0,1,143,22.68c-.62,0-1.07-.43-1.37-1.3a6.1,6.1,0,0,0-2.1-2.68c0-.15.07-.22.25-.22C143.1,18.53,144.8,19.3,144.88,20.83Z"/><path class="a" d="M165.8,18c.83.5,1.25.93,1.25,1.3a1.69,1.69,0,0,1-.12.5,1.24,1.24,0,0,0-.18.63c0,1.2,0,2.4.08,3.6-.35,1.62-1,2.45-1.75,2.5-.33,0-.73-.35-1.2-1l-.63,0a18.88,18.88,0,0,1-1.95.12c-.92.08-1.75.15-2.44.25a21.13,21.13,0,0,0-3.15.38A1.49,1.49,0,0,1,155,26a1.61,1.61,0,0,1-.85.87c-.9,0-1.43-.72-1.6-2.15a37.45,37.45,0,0,0,.2-4,2.53,2.53,0,0,0-.38-1.18,3.55,3.55,0,0,0-.35-.27c-.2,0-.32-.08-.35-.13s.13-.35.4-.57a1.8,1.8,0,0,1,.73-.25,4.56,4.56,0,0,1,.62.05l.83.32c.05,0,.07.05.12.05.7-.05,1.38-.15,2.05-.25,0-.15,0-.27,0-.37a1,1,0,0,0-.38-.73l-.05,0c-1.7.12-3.3.27-4.8.42-.45,0-1.15-.5-2.07-1.52,0-.13.1-.2.3-.2,2.2-.08,5.82-.4,10.89-1l5.3-.52c-.1,0-.15-.05-.17-.1-.45-.38-.88-.73-1.3-1a6.1,6.1,0,0,1-3.55,1.15c-.18,0-.25,0-.25-.12a11,11,0,0,0,2.32-2,15.31,15.31,0,0,0-2.45-1.1q0-.27.3-.27c1.2.07,2.28.17,3.18.27a2.56,2.56,0,0,0,.35-.58c0-.22-.1-.35-.28-.35a5.89,5.89,0,0,1-1.25.25,4,4,0,0,1-1.7-.94.46.46,0,0,1-.15-.28,24,24,0,0,0,4.13-.95,4.21,4.21,0,0,1,1.42.62c.63.46.95.8.95,1.05s-.27.55-.77.95a3.68,3.68,0,0,1-.53.7c1.15.38,1.78.88,1.85,1.48a1.27,1.27,0,0,1-.37,1h.3a2.57,2.57,0,0,1,1.37.65c.53.45.8.75.85,1,0,.47-.27.7-.8.7-2.6.07-5.07.17-7.4.27a1.28,1.28,0,0,1,.35.68l1.83-.23A5.73,5.73,0,0,1,165.8,18ZM152.86,4.46s.07,0,.1,0a13.17,13.17,0,0,0,2.32-.3,6.56,6.56,0,0,0,1.55-.38,2.91,2.91,0,0,1,.8-.2,2.19,2.19,0,0,1,1.9,1.3c0,.5-.35.83-1,1-.86.15-1.68.28-2.53.35a2.38,2.38,0,0,1,.65.7,1.2,1.2,0,0,0,.35-.1,6.55,6.55,0,0,1,1.15-.37,2.75,2.75,0,0,1,1.07.32c.45.3.68.53.68.68a.42.42,0,0,1-.45.47c-.82.15-1.53.3-2.07.45a1.91,1.91,0,0,1,.5.4,6.1,6.1,0,0,1,.79-.15,1.88,1.88,0,0,1,.9.43,2.48,2.48,0,0,0,.83-1.13,5.29,5.29,0,0,0,.22-1c.05-.67.1-1.1.1-1.27a.93.93,0,0,0-.37-.7c-.22-.1-.35-.2-.38-.3,0-.35.25-.58.75-.68a7.15,7.15,0,0,1,1.83.38,1.81,1.81,0,0,0,.35-.13,3.33,3.33,0,0,1,1.27-.55,7.92,7.92,0,0,1,1.83.48c.62.3,1,.57,1,.8a.43.43,0,0,1-.28.22l-.37.4a1.35,1.35,0,0,0-.18.63.36.36,0,0,0,0,.22,1.17,1.17,0,0,0,.58.08,4.56,4.56,0,0,0,1.2-.3,1.91,1.91,0,0,1,1.05.52,1.13,1.13,0,0,1,.35.73c-.13.75-1,1.1-2.55,1.1a4.16,4.16,0,0,1-2.5-.48,1.69,1.69,0,0,1-.48-1.42A2.74,2.74,0,0,1,164,6a.21.21,0,0,0-.23-.23A8,8,0,0,1,163,6a3.75,3.75,0,0,1-.62,2.12,3.09,3.09,0,0,1-2.47,1.23,2.27,2.27,0,0,1,.44.55c0,.34-.19.52-.6.52-.84,0-1.62.12-2.34.23l-.1.12c1.85,0,2.77.35,2.79.87s-.25,1-.74,1.13A1.34,1.34,0,0,1,160.2,14c0,.5-.32.8-1,.87-1.1-.1-2.12-.17-3-.27-1.15.1-2.17.2-3.07.32a6.48,6.48,0,0,1-.63.23.62.62,0,0,1-.42.25c-.28,0-.63-.25-1.05-.78a2.18,2.18,0,0,1-.55-.95,17.06,17.06,0,0,1,.35-2.22c.15-2.07.22-3.85.22-5.32a1.25,1.25,0,0,0-.37-1c-.2-.15-.3-.25-.3-.35s.12-.22.42-.45a2,2,0,0,1,.48-.17A5.92,5.92,0,0,1,152.86,4.46Zm1.22,2a.91.91,0,0,1-.5-.15c-.07.6-.17,1.37-.3,2.32-.07,1.25-.1,2.67-.1,4.22,0,.2.15.28.45.28,1.53-.23,3.05-.43,4.55-.63a2.18,2.18,0,0,1-.15-.27,3.9,3.9,0,0,0-1-1.13,7.93,7.93,0,0,1-.58.58,5.28,5.28,0,0,1-3,1.15c-.15,0-.22-.08-.22-.23A4.22,4.22,0,0,0,154.91,11a3.14,3.14,0,0,1-1.58-1.2c0-.1.08-.17.23-.17a13.18,13.18,0,0,0,2-.33c0-.08,0-.15,0-.22,0-.38-.13-.6-.35-.68a5.05,5.05,0,0,1-1.68.82c-.15,0-.2-.05-.2-.19a13.93,13.93,0,0,0,.63-1.3,4.57,4.57,0,0,0,.4-1.23s0-.1,0-.15A.77.77,0,0,1,154.08,6.41ZM156,21a5.66,5.66,0,0,0,.25-.82l-1,.15c0,.47,0,1,0,1.7A3,3,0,0,0,156,21Zm2.53,3.3c2.19-.22,3.64-.4,4.34-.5a3.73,3.73,0,0,1,.8.08c0-.7-.05-1.38-.05-2a2.68,2.68,0,0,1-.65.1c-2.25,0-3.37-.72-3.37-2.22-.35.05-.68.07-1,.12a3.16,3.16,0,0,1-.55,1.35,3.45,3.45,0,0,1-2.73,1.45c0,.58,0,1.2,0,1.85C156.23,24.4,157.31,24.35,158.51,24.25Zm2.92-1.95a1.88,1.88,0,0,1,.6.65c0,.33-.2.48-.58.48a26.36,26.36,0,0,0-3.92.5c-.38,0-.92-.38-1.62-1.18,0-.1.07-.17.22-.17a21.41,21.41,0,0,0,2.62-.43c1-.2,1.6-.32,1.75-.32A1.85,1.85,0,0,1,161.43,22.3Zm-1.78-4.67a.5.5,0,0,0-.25-.48c-.2,0-.4,0-.59,0a.77.77,0,0,1,.05.17.61.61,0,0,1-.11.3v.55l.88-.15C159.63,17.93,159.65,17.78,159.65,17.63Zm2,2.07c0,.25.32.38,1,.38a1.51,1.51,0,0,0,.63-.13c.12-.05.25-.07.35-.12-.05-.33-.2-.5-.43-.5-.5,0-1,.05-1.52.1Z"/><path class="a" d="M181.36,6.71c.87.55,1.32,1,1.32,1.32s-.25.7-.75,1c-.5.55-.92,1-1.25,1.43a2.72,2.72,0,0,0-.42,1.22,4.26,4.26,0,0,0,1.12,1.92,5.57,5.57,0,0,1,.77,2.23c1.25-.1,3.1-.3,5.5-.65s3.8-.5,4.1-.5a3.09,3.09,0,0,1,1.65.82c.65.55,1,.93,1,1.15,0,.6-.32.88-1,.88l-3.53.15c.68.3,1,.65,1.08,1.1A6.63,6.63,0,0,0,190.6,20c0,.72-.07,1.45-.07,2.2,0,.37.42.55,1.3.55a1.52,1.52,0,0,0,1.32-.6,5.1,5.1,0,0,0,.48-1.68c0-.2.05-.3.1-.3s.25.13.25.35a5.41,5.41,0,0,0,.77,1.33,3.5,3.5,0,0,0,1,.85c.22.25.35.42.35.55A2.08,2.08,0,0,1,195,25a4.79,4.79,0,0,1-3.13,1q-2.81,0-3.45-.9c-.62-.55-.92-1.6-.92-3.18.05-.95.1-1.92.1-2.9a1.42,1.42,0,0,0-.45-1.2l-1.53.15s0,0,0,0c.85.55,1.28,1.1,1.28,1.62a1.39,1.39,0,0,1-.3.7c-1.85,3.45-3.92,5.28-6.25,5.48a.33.33,0,0,1-.37-.38,14.13,14.13,0,0,0,2.12-2.62,13.09,13.09,0,0,0,1.35-2.73,10.72,10.72,0,0,0,.47-1.57.51.51,0,0,0-.17-.35,3.35,3.35,0,0,1-1.65-1,2.63,2.63,0,0,1-2.35,2.12,1.07,1.07,0,0,1-.75-.37,6.54,6.54,0,0,0-1-1c-.3-.25-.57-.45-.77-.65,0,1.85,0,3.73,0,5.6a4.8,4.8,0,0,1-.52,2.38,1.46,1.46,0,0,1-1.3.82c-.78-.3-1.28-1.1-1.48-2.45a47.66,47.66,0,0,0,.33-5c.07-1.63.15-3.23.2-4.78,0-3.67-.13-5.67-.33-6a.71.71,0,0,0-.37-.57c-.3-.08-.45-.18-.5-.33,0-.37.4-.67,1.25-.87a11.4,11.4,0,0,1,2.27.5.21.21,0,0,0,.15.07,8.23,8.23,0,0,0,1.08-.42,5.35,5.35,0,0,1,1.2-.48A6,6,0,0,1,181.36,6.71Zm-4,7.19c0,.85,0,1.68,0,2.48.5-.05.92-.1,1.25-.1s.47-.25.47-.78a6.17,6.17,0,0,0-.35-2.17,3.85,3.85,0,0,1-.5-1.7,18.5,18.5,0,0,1,.65-3.2.29.29,0,0,0-.32-.32,7,7,0,0,0-.93.32h0C177.53,9.18,177.46,11,177.33,13.9Zm7.12-5.29c1.4-.2,2.7-.45,3.93-.75,1.62-.35,2.72-.55,3.27-.6a7.88,7.88,0,0,1,2.6,1.27c.8.55,1.23,1,1.23,1.33,0,.52-.3.82-.88.89-1,.35-2.15.78-3.45,1.25a2,2,0,0,1,.83.88c0,.55-.35.82-1,.82-1.53.23-3,.43-4.53.63a3.35,3.35,0,0,1-2.3-1.2c0-.58.1-.88.33-.88a24.85,24.85,0,0,0,4.75-.8l.87.15a4.66,4.66,0,0,0,.65-1.3c0-.3-.15-.44-.4-.44-1.67.2-3.2.39-4.57.59a2.22,2.22,0,0,1-1.17-.54,4.53,4.53,0,0,1-.66,2.47,1.67,1.67,0,0,1-1.39,1,1,1,0,0,1-1-.62,2.63,2.63,0,0,1-.27-1.5c0-.25.27-.65.84-1.2a4.29,4.29,0,0,0,1.3-2.62A1.61,1.61,0,0,1,184.45,8.61Zm2.18-4c.72.2,1.35.33,1.9.43a1.8,1.8,0,0,1,.82.25,1.52,1.52,0,0,1,.3.85,1.74,1.74,0,0,1-2,1.62,2.22,2.22,0,0,1-1.67-1A4.93,4.93,0,0,1,185,4.53a.28.28,0,0,1,.3-.32A7.34,7.34,0,0,0,186.63,4.58Z"/><path class="a" d="M201.38,5l.93.32a.07.07,0,0,0,.07,0c1.85-.15,4-.35,6.35-.6s4.6-.6,6.85-1a9,9,0,0,1,2.45,1c.85.57,1.27,1,1.27,1.27a31.65,31.65,0,0,0-.35,5c0,3.9,0,7.78.05,11.65-.1,2.05-.87,3.3-2.3,3.8-.3,0-.6-.4-.92-1.17a7.71,7.71,0,0,0-.45-.78h-.4c-1,.1-2,.15-2.9.15l-3.77.25c-2.2.15-3.78.33-4.73.5a1.32,1.32,0,0,1-.67-.22,1.8,1.8,0,0,1-1,.92c-1,0-1.6-.82-1.83-2.42.25-3.8.4-8.4.4-13.8a15.25,15.25,0,0,0-.37-3.1,4.15,4.15,0,0,0-.35-.7.49.49,0,0,1-.35-.32c0-.18.15-.4.47-.65a1.67,1.67,0,0,1,.8-.28A3.5,3.5,0,0,1,201.38,5Zm6.8,17.92c3.35-.25,5.55-.45,6.6-.58.2,0,.42,0,.62.05a44.8,44.8,0,0,0,.48-7.27c0-.45,0-.88,0-1.33a.78.78,0,0,1-.5.13A76.1,76.1,0,0,0,205,15c-.4,0-1-.37-1.7-1.12,0,.7,0,1.4,0,2.12a3,3,0,0,1,1-.55,7.2,7.2,0,0,1,1.52.18.39.39,0,0,0,.15,0c.88-.1,1.77-.22,2.7-.37l2.32-.4a14.68,14.68,0,0,0,1.55-.25,5,5,0,0,1,1.88.72c.67.45,1,.83,1,1.13a1.49,1.49,0,0,1-.1.42,3.81,3.81,0,0,0-.4.63c-.3.95-.6,2-.92,3.22-.25,1-.6,1.5-1.08,1.5a1.59,1.59,0,0,1-1-.37,4.3,4.3,0,0,1-1.08.12l-1.47.2c-.88.15-1.5.28-1.85.38a.93.93,0,0,1-.52-.18.89.89,0,0,1-.75.33c-.58,0-1-.4-1.18-1.25-.3-1.38-.55-2.58-.77-3.63a6.22,6.22,0,0,0-.45-1.3c-.05-.1-.2-.17-.43-.22h-.15c0,2,0,4.35,0,6.85C204.61,23.08,206.28,23,208.18,22.88Zm0-10.23V12.2a2.7,2.7,0,0,0-.08-.35l-.39.13a.4.4,0,0,1-.2,0,.83.83,0,0,1-.75.38c-.55,0-.93-.38-1.1-1.17s-.58-1.35-.78-1.91a3.7,3.7,0,0,0-.42-.69,1.87,1.87,0,0,0-.43-.13c-.2,0-.27,0-.27,0,.1-.25.47-.5,1.07-.75a6.69,6.69,0,0,1,1.05.1c1.63-.25,3.27-.55,4.92-.87,2,.7,3,1.3,3,1.84a1.44,1.44,0,0,1-.47.38,5.22,5.22,0,0,0-.6.65c-.1.15-.2.3-.28.4a1.6,1.6,0,0,1,.28.57c0,.33-.05.48-.13.48a1.19,1.19,0,0,1-.7.12,5,5,0,0,1-1.07.11,3.44,3.44,0,0,1-.43,0c.15.15.25.28.25.38a2.33,2.33,0,0,0-.2.5c2.13-.3,3.35-.48,3.65-.48a2.16,2.16,0,0,1,1.15.6c.25.2.43.35.53.45-.05-1.7-.15-3.4-.3-5.07-.1-1-.48-1.52-1.13-1.52a56.52,56.52,0,0,0-11.09,1.17c0,1.43-.05,3.35-.05,5.75C204.38,13.18,206,13,208.23,12.65Zm.38,8.1c1.29-.2,2.12-.37,2.52-.47l.32,0c.13-1.2.23-2.4.28-3.55,0-.2-.18-.32-.48-.32-1.12.1-2.6.32-4.44.67,0,.15,0,.28,0,.38l.48-.23a2.79,2.79,0,0,1,.84.13l.36.1a3.36,3.36,0,0,0,.62-.23,8.21,8.21,0,0,1,.8-.32,2.84,2.84,0,0,1,.85.17c.47.23.72.43.72.6a.23.23,0,0,1-.12.2c-.13.05-.2.18-.25.38s-.2.57-.28.85a1,1,0,0,1,.33.52c0,.2,0,.28-.05.28a.44.44,0,0,1-.3.07,1.8,1.8,0,0,1-.5.05l-.6.13-.78.22a.47.47,0,0,1-.32-.1.49.49,0,0,1-.48.28c-.32,0-.54-.23-.64-.73s-.25-1.07-.36-1.47a3.78,3.78,0,0,0-.19-.58s-.05,0-.1-.05c0,.58.1,1.28.17,2.08,0,.4.05.75.1,1.05Zm1.47-11.22c0-.4-.1-.6-.28-.6-.69.1-1.47.25-2.34.4,0,.28.07.58.12.87.32,0,.68-.07,1-.12.54-.1,1-.17,1.39-.25C210,9.73,210.05,9.63,210.08,9.53Zm-1.15,9.6a5.85,5.85,0,0,0,.6-.13c0-.22.05-.37.05-.47s-.08-.23-.18-.23l-.67.2v.65A.59.59,0,0,0,208.93,19.13Z"/><path class="a" d="M244.43,8.16c.57.45.87.79.92,1,0,.5-.3.72-.87.72l-4.3.15c-.13.3-.25.6-.35.9a3.22,3.22,0,0,1-.3.7,1.68,1.68,0,0,1,.52.65c0,.42-.25.62-.75.62l-3.75.15v.7q1.72-.18,2.4-.3c1.1,0,1.75.38,1.9,1.13,0,.37-.07.55-.22.55a4.35,4.35,0,0,1-1.35.12,13.88,13.88,0,0,1-2,.13,3.81,3.81,0,0,1-.75.07v.6q5.47-.53,6.15-.52a2.87,2.87,0,0,1,1.47.67,3,3,0,0,1,.9,1c0,.5-.3.75-.85.75-5.9.15-11,.5-15.49,1-.58,0-1.43-.6-2.55-1.85,0-.18.12-.28.37-.28q2.33-.08,7.05-.52v-.6a21.37,21.37,0,0,0-2.17.32c-.45,0-1.15-.52-2.08-1.57,0-.15.1-.23.35-.23,1,0,2.3-.07,3.88-.2,0-.27,0-.55,0-.8l-2.1.23c-.47,0-1.2-.53-2.17-1.6,0-.15.1-.22.32-.22.85,0,2.18-.13,3.93-.31a7.49,7.49,0,0,1,0-.82c-2.07.17-4,.38-5.82.6-.55,0-1.35-.58-2.4-1.77,0-.16.1-.23.35-.23,1.72-.05,4.32-.27,7.82-.62a6.11,6.11,0,0,1,0-.73l-2.32.3a2.78,2.78,0,0,1-2.17-1.47c0-.15.1-.25.3-.25l4.07-.43c-.15-.85-.4-1.27-.75-1.27s-.35-.1-.35-.25c0-.35.53-.65,1.58-.9,2.1.2,3.14.82,3.14,1.87a.24.24,0,0,0,0,.08,1.84,1.84,0,0,0,.35,0c1.15-.13,1.85-.2,2.12-.25a4.69,4.69,0,0,1,2.05.77c.73.48,1.1.88,1.1,1.2a.74.74,0,0,1-.15.38s0,.07-.07.07c.95-.07,1.52-.12,1.75-.12A2.75,2.75,0,0,1,244.43,8.16Zm-14.2,11.37c2.45-.33,5-.65,7.7-1a5.43,5.43,0,0,1,2.17.65c1.13.47,1.7.95,1.7,1.42a1.8,1.8,0,0,1-.67,1.28,32.67,32.67,0,0,1-1.38,3.75,1.59,1.59,0,0,1-1.07.62,3.41,3.41,0,0,1-1.2-.25.86.86,0,0,1-.45-.32l-.83,0c-.7.05-1.3.13-1.82.2a18.16,18.16,0,0,0-2.3.28H232a1.05,1.05,0,0,1-1,.52c-.7,0-1.15-.52-1.4-1.52-.3-1.28-.55-2.4-.78-3.35a4.33,4.33,0,0,0-.4-1.2.72.72,0,0,0-.42-.2c-.18,0-.25,0-.25-.1.12-.35.55-.65,1.27-.9A8.82,8.82,0,0,1,230.23,19.53Zm7.2,1.8a1.32,1.32,0,0,1,0-.28c0-.27-.32-.42-1-.42-1.8.2-3.3.37-4.52.55a4.1,4.1,0,0,0,0,.52.32.32,0,0,0,0,.18C233.73,21.75,235.53,21.58,237.43,21.33Zm-3.82,2.9,3.14-.28c.13,0,.25,0,.35,0,.05-.33.08-.68.13-1.05-.88.12-1.68.22-2.43.3-.55.05-1.1.1-1.6.12a9.19,9.19,0,0,1-1.09.13v.25c0,.2,0,.37,0,.57Zm3.59-14c-.57.05-1.12.07-1.62.1V11c.6,0,1.07-.1,1.45-.15C237.08,10.63,237.15,10.41,237.2,10.18Zm.38-2.37a.42.42,0,0,0-.48-.45c-.45,0-.92,0-1.42.1,0,.25,0,.47,0,.7.68-.05,1.3-.13,1.9-.2C237.55,7.91,237.58,7.86,237.58,7.81Z"/><path class="a" d="M255.06,5.23A2.37,2.37,0,0,1,256,6.91a.8.8,0,0,1-.25.55c1.37.27,2.07.82,2.12,1.67s-.45,1.23-1.3,1.23c-.55,0-.92-.3-1.17-.95a6.3,6.3,0,0,1-.38-.58c-.3.53-.6,1-.87,1.45a7.73,7.73,0,0,0,1.22.42.76.76,0,0,1,.55.33,2.57,2.57,0,0,1,.2,1,4.48,4.48,0,0,1-.15.5,4.62,4.62,0,0,1,1.48.52c.87.43,1.32.85,1.32,1.25a2.19,2.19,0,0,1-.52,1.35,39.33,39.33,0,0,1-1,4,1.34,1.34,0,0,1-.85.68,2.07,2.07,0,0,1-.95-.25.6.6,0,0,1-.25-.18c-.3.08-.57.13-.82.18a4.65,4.65,0,0,0-1.05.3V22.6c.6-.15,1.17-.32,1.75-.5a5.29,5.29,0,0,0-.85-1.3c0-.12.07-.2.22-.2,2.48,0,3.75.85,3.8,2.38a1.56,1.56,0,0,1-1.75,1.75c-.4,0-.7-.43-.87-1.28a5.34,5.34,0,0,1-.2-.55,7.64,7.64,0,0,1-1.35,1.23c-.53.4-1,.77-1.38,1.12-.4.53-.72.8-1,.8s-.8-.32-1.3-.95a2.68,2.68,0,0,1-.55-1.27,1.27,1.27,0,0,1,.12-.55,3.55,3.55,0,0,0,.38-1,44.24,44.24,0,0,0,.2-4.6,11.77,11.77,0,0,0-.33-3.2,12.81,12.81,0,0,1-1.95,1.1c-.2,0-.3-.08-.3-.28a27.08,27.08,0,0,0,4.78-9.62c0-.45-.18-.7-.5-.7,0-.12.37-.3,1.15-.5A2.47,2.47,0,0,1,255.06,5.23Zm-2.68,8.15c.6-.15,1.2-.33,1.8-.5a2.4,2.4,0,0,1-.5-.68,2.48,2.48,0,0,1-.35-.77,17.68,17.68,0,0,1-1.52,1.72C252,13.23,252.18,13.3,252.38,13.38Zm.93,2.07v.48c.65-.13,1.32-.3,2-.5a2.3,2.3,0,0,1,.05-.45q0-.45-.75-.45c-.45.17-.83.35-1.18.5C253.38,15.18,253.36,15.3,253.31,15.45Zm0,3.1a11.46,11.46,0,0,0,1.55-.4h.22c0-.3,0-.65.08-1l-.5.13a7.32,7.32,0,0,1-.8.15,1.67,1.67,0,0,1-.55.12Zm6.77-9.39a29.93,29.93,0,0,0,4.12-.93,24.93,24.93,0,0,1,3.18-.72,7.49,7.49,0,0,1,2.45,1.19c.77.55,1.17,1,1.17,1.28a.81.81,0,0,1-.8.87c-.8.31-1.7.63-2.7,1,.58.35.88.65.88.92s-.1.25-.25.35a1.1,1.1,0,0,0-.5.68,15.45,15.45,0,0,0-.63,1.62,1.23,1.23,0,0,1,.78,1.23c0,.35-.2.52-.6.52-.65.05-1.5.1-2.6.15-.93.1-1.75.23-2.48.38v.92c1.4-.2,2.83-.47,4.23-.77,2.25.77,3.4,1.47,3.4,2.07a1.72,1.72,0,0,1-.53.6,4.53,4.53,0,0,0-.75,1.1c-.2.4-.37.73-.55,1a1.4,1.4,0,0,1,.78,1.35c0,.4-.23.6-.68.6-.7,0-1.62,0-2.77.07s-1.9.13-2.68.23a1.67,1.67,0,0,1-.65-.13,1.87,1.87,0,0,1-1.12,1.45q-1.5,0-1.8-2.4a80.78,80.78,0,0,0,.38-8.47,7.93,7.93,0,0,0-.36-2.1,1.79,1.79,0,0,0-.35-.48.45.45,0,0,1-.34-.22.38.38,0,0,1,.12-.28,1.15,1.15,0,0,1-1-.45,1.51,1.51,0,0,1-.3-1.1c0-.2.25-.47.75-.87A3,3,0,0,0,259,8,1.42,1.42,0,0,1,260.08,9.16Zm6.45,1.22c0-.25-.13-.4-.35-.4a43.45,43.45,0,0,0-4.63.93,3,3,0,0,1-1.42-.75,2.84,2.84,0,0,1-.52,1.42l-.06.08a2.84,2.84,0,0,1,.68.07c.32.1.65.2.95.32a.91.91,0,0,0,.32.15,18.26,18.26,0,0,0,2.2-.47,15.64,15.64,0,0,1,1.63-.43,4.94,4.94,0,0,1,.95.11C266.38,11.1,266.45,10.75,266.53,10.38Zm-3.6-5.9a12.69,12.69,0,0,0,1.8.5,1.31,1.31,0,0,1,.75.33,2.21,2.21,0,0,1,.3,1,1.71,1.71,0,0,1-1.88,1.58,2,2,0,0,1-1.57-1.08,6.47,6.47,0,0,1-1-2.52c0-.18.1-.28.3-.28A8.28,8.28,0,0,0,262.93,4.48Zm-.28,18.4c1.08-.1,2-.2,2.65-.28a.59.59,0,0,1,0-.2,14.49,14.49,0,0,0,.2-1.7c0-.4-.13-.62-.33-.62-.87.1-1.9.27-3.07.5,0,.75,0,1.55,0,2.35C262.25,22.93,262.45,22.9,262.65,22.88Zm2-8.95c0-.23-.1-.35-.3-.35-.7.1-1.43.2-2.18.35,0,.57,0,1.22,0,2l.12,0c.85-.13,1.55-.23,2.13-.33A11.13,11.13,0,0,0,264.63,13.93Z"/><path class="a" d="M53.1,31.2H49.68v2.2h2.86a.88.88,0,0,1,.6.18.62.62,0,0,1,.19.48.57.57,0,0,1-.2.47.85.85,0,0,1-.59.18H49.68v2.83a1.16,1.16,0,0,1-.25.8.82.82,0,0,1-.62.26.8.8,0,0,1-.63-.27,1.13,1.13,0,0,1-.24-.79V30.93a1.33,1.33,0,0,1,.11-.61A.67.67,0,0,1,48.4,30a1.46,1.46,0,0,1,.6-.11h4.1a.85.85,0,0,1,.62.19.59.59,0,0,1,.2.48.61.61,0,0,1-.2.49A.9.9,0,0,1,53.1,31.2Z"/><path class="a" d="M58.85,37.7a5,5,0,0,1-1.12.67,3.16,3.16,0,0,1-1.22.23,2.32,2.32,0,0,1-1.08-.24,1.92,1.92,0,0,1-.72-.66,1.8,1.8,0,0,1-.25-.91,1.62,1.62,0,0,1,.42-1.12A2.18,2.18,0,0,1,56,35.05l.76-.15,1-.23.94-.25a1.69,1.69,0,0,0-.26-.93,1.12,1.12,0,0,0-.93-.29,1.86,1.86,0,0,0-.92.17,1.43,1.43,0,0,0-.53.51,4.35,4.35,0,0,1-.31.44c-.06.08-.19.11-.39.11a.69.69,0,0,1-.46-.17.57.57,0,0,1-.2-.44,1.34,1.34,0,0,1,.3-.82,2.1,2.1,0,0,1,.93-.66,4.24,4.24,0,0,1,1.58-.26,4.54,4.54,0,0,1,1.65.25,1.56,1.56,0,0,1,.86.79,3.56,3.56,0,0,1,.25,1.43c0,.37,0,.69,0,1s0,.56,0,.88a3.23,3.23,0,0,0,.15.94,2.8,2.8,0,0,1,.15.63.59.59,0,0,1-.23.45.79.79,0,0,1-.52.2.72.72,0,0,1-.49-.23A3.73,3.73,0,0,1,58.85,37.7Zm-.1-2.32a7,7,0,0,1-1,.27l-.93.22a1.23,1.23,0,0,0-.49.26.69.69,0,0,0-.23.55.8.8,0,0,0,.27.61,1,1,0,0,0,.72.26,1.87,1.87,0,0,0,.88-.21,1.46,1.46,0,0,0,.59-.53,2.55,2.55,0,0,0,.22-1.2Z"/><path class="a" d="M63.53,36.29v1.34a1.06,1.06,0,0,1-.23.73.77.77,0,0,1-.58.24.72.72,0,0,1-.57-.25,1,1,0,0,1-.22-.72V33.17q0-1.08.78-1.08a.65.65,0,0,1,.57.26,1.31,1.31,0,0,1,.19.74,2.81,2.81,0,0,1,.59-.74,1.21,1.21,0,0,1,.81-.26,2.08,2.08,0,0,1,1,.26.75.75,0,0,1,.47.66.67.67,0,0,1-.64.68,2.11,2.11,0,0,1-.42-.11,2.07,2.07,0,0,0-.6-.11.84.84,0,0,0-.57.19,1.21,1.21,0,0,0-.35.54,4.62,4.62,0,0,0-.17.87C63.54,35.4,63.53,35.81,63.53,36.29Z"/><path class="a" d="M76,31.2H72.05v2.11h3.61a.85.85,0,0,1,.59.18.62.62,0,0,1,.2.47.63.63,0,0,1-.2.48.83.83,0,0,1-.59.19H72.05v2.44h4a.89.89,0,0,1,.62.19.66.66,0,0,1,.21.51.64.64,0,0,1-.21.49.89.89,0,0,1-.62.19H71.37a1.08,1.08,0,0,1-.81-.25,1.11,1.11,0,0,1-.25-.81V30.93a1.33,1.33,0,0,1,.11-.61.67.67,0,0,1,.35-.35,1.46,1.46,0,0,1,.6-.11H76a.84.84,0,0,1,.61.19.6.6,0,0,1,.21.48.62.62,0,0,1-.21.49A.89.89,0,0,1,76,31.2Z"/><path class="a" d="M82.24,37.7a4.8,4.8,0,0,1-1.12.67,3.16,3.16,0,0,1-1.22.23,2.32,2.32,0,0,1-1.08-.24,1.82,1.82,0,0,1-.71-.66,1.72,1.72,0,0,1-.26-.91,1.62,1.62,0,0,1,.42-1.12,2.18,2.18,0,0,1,1.14-.62l.76-.15,1-.23.94-.25a1.69,1.69,0,0,0-.26-.93A1.12,1.12,0,0,0,81,33.2a1.86,1.86,0,0,0-.92.17,1.43,1.43,0,0,0-.53.51,4.35,4.35,0,0,1-.31.44c-.06.08-.19.11-.39.11a.69.69,0,0,1-.46-.17.57.57,0,0,1-.2-.44,1.34,1.34,0,0,1,.3-.82,2.1,2.1,0,0,1,.93-.66A4.24,4.24,0,0,1,81,32.08a4.64,4.64,0,0,1,1.66.25,1.57,1.57,0,0,1,.85.79,3.56,3.56,0,0,1,.25,1.43c0,.37,0,.69,0,1s0,.56,0,.88a3.23,3.23,0,0,0,.15.94A2.8,2.8,0,0,1,84,38a.59.59,0,0,1-.23.45.79.79,0,0,1-.52.2.72.72,0,0,1-.49-.23A3.73,3.73,0,0,1,82.24,37.7Zm-.1-2.32a7,7,0,0,1-1,.27l-.92.22a1.2,1.2,0,0,0-.5.26.69.69,0,0,0-.23.55.8.8,0,0,0,.27.61,1,1,0,0,0,.72.26,1.87,1.87,0,0,0,.88-.21,1.46,1.46,0,0,0,.59-.53,2.55,2.55,0,0,0,.22-1.2Z"/><path class="a" d="M90.48,36.51a2,2,0,0,1-.32,1.13,2.08,2.08,0,0,1-1,.72,4.33,4.33,0,0,1-1.54.24,3.64,3.64,0,0,1-1.47-.27,2.1,2.1,0,0,1-.91-.65,1.31,1.31,0,0,1-.29-.8.64.64,0,0,1,.18-.45.69.69,0,0,1,.48-.19.5.5,0,0,1,.38.13,1.21,1.21,0,0,1,.26.34,1.75,1.75,0,0,0,.59.64,1.79,1.79,0,0,0,.94.21,1.33,1.33,0,0,0,.78-.21.61.61,0,0,0,.31-.49.66.66,0,0,0-.32-.62,3.93,3.93,0,0,0-1-.37,7.87,7.87,0,0,1-1.34-.43,2.18,2.18,0,0,1-.83-.59,1.36,1.36,0,0,1-.31-.91,1.62,1.62,0,0,1,.28-.91,2,2,0,0,1,.85-.68,3.22,3.22,0,0,1,1.35-.26,4.78,4.78,0,0,1,1.12.13,2.7,2.7,0,0,1,.82.35,1.69,1.69,0,0,1,.51.48,1,1,0,0,1,.17.52A.58.58,0,0,1,90,34a.74.74,0,0,1-.52.17.63.63,0,0,1-.42-.14,2.35,2.35,0,0,1-.39-.42,1.55,1.55,0,0,0-.43-.38,1.42,1.42,0,0,0-.67-.14,1.33,1.33,0,0,0-.72.19.55.55,0,0,0-.29.46.49.49,0,0,0,.21.41,1.68,1.68,0,0,0,.57.27l1,.26a5.1,5.1,0,0,1,1.21.43,2.17,2.17,0,0,1,.72.59A1.34,1.34,0,0,1,90.48,36.51Z"/><path class="a" d="M91.92,32.24h.18v-1a5,5,0,0,1,0-.6.89.89,0,0,1,.11-.38A.7.7,0,0,1,92.5,30a.76.76,0,0,1,.39-.1.78.78,0,0,1,.55.23.66.66,0,0,1,.21.37,3.32,3.32,0,0,1,0,.63v1.09h.58a.74.74,0,0,1,.52.16.51.51,0,0,1,.18.41.47.47,0,0,1-.25.45,1.62,1.62,0,0,1-.73.13h-.3v2.94c0,.25,0,.44,0,.58a.71.71,0,0,0,.14.33.51.51,0,0,0,.38.12,1.58,1.58,0,0,0,.38,0,2.24,2.24,0,0,1,.37-.05.46.46,0,0,1,.35.16.53.53,0,0,1,.16.38.63.63,0,0,1-.43.59,2.77,2.77,0,0,1-1.21.21,2.19,2.19,0,0,1-1.14-.25,1.19,1.19,0,0,1-.5-.7,4.74,4.74,0,0,1-.12-1.19V33.39h-.21a.82.82,0,0,1-.53-.16.54.54,0,0,1-.18-.42.49.49,0,0,1,.19-.41A.8.8,0,0,1,91.92,32.24Z"/><path class="a" d="M100.55,35.74H97.42a2,2,0,0,0,.22,1,1.47,1.47,0,0,0,1.35.84,1.72,1.72,0,0,0,.52-.07,1.46,1.46,0,0,0,.46-.21,3.38,3.38,0,0,0,.41-.31l.49-.44a.52.52,0,0,1,.35-.11.59.59,0,0,1,.4.14.48.48,0,0,1,.15.38,1.06,1.06,0,0,1-.17.5,1.88,1.88,0,0,1-.51.56,2.78,2.78,0,0,1-.86.44,3.69,3.69,0,0,1-1.2.18,3.17,3.17,0,0,1-2.39-.88,3.29,3.29,0,0,1-.86-2.39A4,4,0,0,1,96,34a2.94,2.94,0,0,1,.62-1,2.71,2.71,0,0,1,1-.67,3.64,3.64,0,0,1,1.31-.23,3.08,3.08,0,0,1,1.61.4,2.58,2.58,0,0,1,1,1,2.71,2.71,0,0,1,.33,1.28c0,.4-.11.66-.34.78A2.15,2.15,0,0,1,100.55,35.74Zm-3.13-.91h2.9a2,2,0,0,0-.44-1.23,1.35,1.35,0,0,0-1-.4,1.28,1.28,0,0,0-1,.41A2,2,0,0,0,97.42,34.83Z"/><path class="a" d="M104.8,36.29v1.34a1.06,1.06,0,0,1-.23.73.75.75,0,0,1-.58.24.72.72,0,0,1-.57-.25,1.07,1.07,0,0,1-.22-.72V33.17q0-1.08.78-1.08a.63.63,0,0,1,.57.26,1.31,1.31,0,0,1,.2.74,2.62,2.62,0,0,1,.59-.74,1.2,1.2,0,0,1,.8-.26,2.05,2.05,0,0,1,1,.26.74.74,0,0,1,.48.66.64.64,0,0,1-.21.49.65.65,0,0,1-.43.19,2.32,2.32,0,0,1-.43-.11,2,2,0,0,0-.59-.11.85.85,0,0,0-.58.19,1.12,1.12,0,0,0-.34.54,3.94,3.94,0,0,0-.17.87C104.82,35.4,104.8,35.81,104.8,36.29Z"/><path class="a" d="M109.92,33v.19a2.76,2.76,0,0,1,.92-.81,2.42,2.42,0,0,1,1.16-.27,2.36,2.36,0,0,1,1.13.28,1.69,1.69,0,0,1,.74.78,2,2,0,0,1,.21.63,7.06,7.06,0,0,1,0,.87v3a1,1,0,0,1-.22.72.7.7,0,0,1-.57.25.76.76,0,0,1-.58-.25,1.05,1.05,0,0,1-.22-.72V35a2.61,2.61,0,0,0-.22-1.21.9.9,0,0,0-.88-.42,1.33,1.33,0,0,0-.78.26,1.47,1.47,0,0,0-.51.7,4.82,4.82,0,0,0-.12,1.33v2a1.06,1.06,0,0,1-.22.73.78.78,0,0,1-.59.24.76.76,0,0,1-.57-.25,1.1,1.1,0,0,1-.22-.72V33a1,1,0,0,1,.2-.68.7.7,0,0,1,.55-.23.83.83,0,0,1,.38.1.79.79,0,0,1,.27.3A1.07,1.07,0,0,1,109.92,33Z"/><path class="a" d="M121.73,37.16l-1.38-5.48v5.93a1.06,1.06,0,0,1-.22.74.73.73,0,0,1-.58.25.75.75,0,0,1-.58-.24,1.14,1.14,0,0,1-.22-.75V30.82a.86.86,0,0,1,.29-.76,1.43,1.43,0,0,1,.8-.2h.53a2,2,0,0,1,.71.09.58.58,0,0,1,.33.32,4.94,4.94,0,0,1,.24.74l1.24,4.71L124.14,31a4.94,4.94,0,0,1,.24-.74.58.58,0,0,1,.33-.32,2,2,0,0,1,.7-.09H126a1.4,1.4,0,0,1,.79.2.84.84,0,0,1,.3.76v6.79a1.11,1.11,0,0,1-.22.74.75.75,0,0,1-.59.25.72.72,0,0,1-.57-.25,1.06,1.06,0,0,1-.22-.74V31.68l-1.38,5.48c-.09.35-.16.61-.22.78a1,1,0,0,1-.31.45.93.93,0,0,1-.64.21,1,1,0,0,1-.51-.13,1,1,0,0,1-.33-.34,1.77,1.77,0,0,1-.18-.45C121.82,37.51,121.78,37.34,121.73,37.16Z"/><path class="a" d="M133.18,35.74h-3.13a2.12,2.12,0,0,0,.22,1,1.47,1.47,0,0,0,1.35.84,1.72,1.72,0,0,0,.52-.07,1.46,1.46,0,0,0,.46-.21A3.38,3.38,0,0,0,133,37l.49-.44a.52.52,0,0,1,.35-.11.57.57,0,0,1,.4.14.48.48,0,0,1,.15.38,1,1,0,0,1-.17.5,1.88,1.88,0,0,1-.51.56,2.78,2.78,0,0,1-.86.44,3.67,3.67,0,0,1-1.19.18,3.18,3.18,0,0,1-2.4-.88,3.29,3.29,0,0,1-.86-2.39,4,4,0,0,1,.21-1.31,3.09,3.09,0,0,1,.62-1,2.71,2.71,0,0,1,1-.67,3.64,3.64,0,0,1,1.31-.23,3.08,3.08,0,0,1,1.61.4,2.58,2.58,0,0,1,1,1,2.72,2.72,0,0,1,.34,1.28.8.8,0,0,1-.35.78A2.12,2.12,0,0,1,133.18,35.74Zm-3.13-.91H133a2,2,0,0,0-.44-1.23,1.34,1.34,0,0,0-1-.4,1.28,1.28,0,0,0-1,.41A2,2,0,0,0,130.05,34.83Z"/><path class="a" d="M141.16,35.46v2.13a1.11,1.11,0,0,1-.22.76.83.83,0,0,1-.61.25.78.78,0,0,1-.59-.25,1.11,1.11,0,0,1-.22-.76V35c0-.4,0-.71,0-.94a1,1,0,0,0-.23-.54.68.68,0,0,0-.57-.22,1,1,0,0,0-1,.54,3.76,3.76,0,0,0-.25,1.55v2.16a1.1,1.1,0,0,1-.23.75.76.76,0,0,1-.59.26.78.78,0,0,1-.6-.26,1.1,1.1,0,0,1-.23-.75V33a1,1,0,0,1,.21-.68.69.69,0,0,1,.55-.24.76.76,0,0,1,.54.22.82.82,0,0,1,.22.61v.15a3,3,0,0,1,.89-.73,2.32,2.32,0,0,1,1.06-.23,2.13,2.13,0,0,1,1,.24,2,2,0,0,1,.71.72,2.78,2.78,0,0,1,.87-.73,2.53,2.53,0,0,1,2.15,0,1.64,1.64,0,0,1,.71.74,3.34,3.34,0,0,1,.21,1.37v3.12a1.11,1.11,0,0,1-.23.76.79.79,0,0,1-.6.25.78.78,0,0,1-.6-.26,1.1,1.1,0,0,1-.23-.75V34.9c0-.34,0-.62,0-.82a1,1,0,0,0-.24-.53.77.77,0,0,0-.59-.21,1.12,1.12,0,0,0-.6.19,1.25,1.25,0,0,0-.44.5A3.93,3.93,0,0,0,141.16,35.46Z"/><path class="a" d="M152.45,35.35a4,4,0,0,1-.22,1.31,2.88,2.88,0,0,1-1.66,1.71,3.64,3.64,0,0,1-1.31.23,3.4,3.4,0,0,1-1.31-.24,2.88,2.88,0,0,1-1-.67,2.94,2.94,0,0,1-.64-1,3.64,3.64,0,0,1-.22-1.31A3.75,3.75,0,0,1,146.3,34a2.77,2.77,0,0,1,.64-1,2.69,2.69,0,0,1,1-.66,3.7,3.7,0,0,1,2.62,0,2.88,2.88,0,0,1,1,.67,2.94,2.94,0,0,1,.64,1A3.73,3.73,0,0,1,152.45,35.35Zm-1.61,0a2.4,2.4,0,0,0-.43-1.53,1.39,1.39,0,0,0-1.15-.54,1.45,1.45,0,0,0-.83.24,1.51,1.51,0,0,0-.55.72,2.9,2.9,0,0,0-.19,1.11,2.83,2.83,0,0,0,.19,1.09,1.53,1.53,0,0,0,.54.72,1.41,1.41,0,0,0,.84.25,1.37,1.37,0,0,0,1.15-.55A2.36,2.36,0,0,0,150.84,35.35Z"/><path class="a" d="M155.3,36.29v1.34a1.06,1.06,0,0,1-.23.73.77.77,0,0,1-.58.24.72.72,0,0,1-.57-.25,1,1,0,0,1-.22-.72V33.17q0-1.08.78-1.08a.65.65,0,0,1,.57.26,1.31,1.31,0,0,1,.19.74,2.81,2.81,0,0,1,.59-.74,1.21,1.21,0,0,1,.81-.26,2.08,2.08,0,0,1,1,.26.75.75,0,0,1,.47.66.67.67,0,0,1-.64.68,2.11,2.11,0,0,1-.42-.11,2.07,2.07,0,0,0-.6-.11.84.84,0,0,0-.57.19,1.21,1.21,0,0,0-.35.54,3.94,3.94,0,0,0-.17.87C155.31,35.4,155.3,35.81,155.3,36.29Z"/><path class="a" d="M159.77,31.35a.88.88,0,0,1-.57-.2.79.79,0,0,1,0-1.14.84.84,0,0,1,1.11,0,.7.7,0,0,1,.24.58.71.71,0,0,1-.23.57A.81.81,0,0,1,159.77,31.35Zm.79,1.65v4.63a1,1,0,0,1-.22.72.8.8,0,0,1-1.16,0,1.1,1.1,0,0,1-.22-.72V33.05a1.07,1.07,0,0,1,.22-.72.75.75,0,0,1,.58-.24.78.78,0,0,1,.58.24A1,1,0,0,1,160.56,33Z"/><path class="a" d="M166.26,37.7a5,5,0,0,1-1.12.67,3.16,3.16,0,0,1-1.22.23,2.32,2.32,0,0,1-1.08-.24,1.92,1.92,0,0,1-.72-.66,1.71,1.71,0,0,1-.25-.91,1.62,1.62,0,0,1,.42-1.12,2.11,2.11,0,0,1,1.14-.62l.76-.15,1-.23c.29-.07.6-.15.93-.25a1.7,1.7,0,0,0-.25-.93c-.15-.2-.46-.29-.94-.29a1.84,1.84,0,0,0-.91.17,1.43,1.43,0,0,0-.53.51c-.15.22-.25.37-.31.44s-.19.11-.39.11a.71.71,0,0,1-.47-.17.56.56,0,0,1-.19-.44,1.34,1.34,0,0,1,.3-.82,2.1,2.1,0,0,1,.93-.66,4.22,4.22,0,0,1,1.57-.26,4.56,4.56,0,0,1,1.66.25,1.56,1.56,0,0,1,.86.79,3.58,3.58,0,0,1,.24,1.43v1c0,.27,0,.56,0,.88a3.23,3.23,0,0,0,.15.94A2.8,2.8,0,0,1,168,38a.62.62,0,0,1-.23.45.79.79,0,0,1-.52.2.72.72,0,0,1-.49-.23A3.73,3.73,0,0,1,166.26,37.7Zm-.11-2.32a6.45,6.45,0,0,1-1,.27l-.93.22a1.23,1.23,0,0,0-.49.26.66.66,0,0,0-.23.55.8.8,0,0,0,.27.61,1,1,0,0,0,.72.26,1.87,1.87,0,0,0,.88-.21,1.46,1.46,0,0,0,.59-.53,2.57,2.57,0,0,0,.21-1.2Z"/><path class="a" d="M169.35,37.63V30.69a1.11,1.11,0,0,1,.21-.73.82.82,0,0,1,1.16,0,1,1,0,0,1,.23.73v6.94a1.06,1.06,0,0,1-.23.73.75.75,0,0,1-.58.24.73.73,0,0,1-.57-.25A1.05,1.05,0,0,1,169.35,37.63Z"/><path class="a" d="M177.46,30.77v2.46h3.76V30.77a1.15,1.15,0,0,1,.24-.79.76.76,0,0,1,.62-.26.83.83,0,0,1,.64.26,1.11,1.11,0,0,1,.24.79v6.77a1.09,1.09,0,0,1-.25.79.87.87,0,0,1-1.26,0,1.2,1.2,0,0,1-.23-.79V34.65h-3.76v2.89a1.13,1.13,0,0,1-.24.79.84.84,0,0,1-.64.27.77.77,0,0,1-.62-.27,1.15,1.15,0,0,1-.24-.79V30.77A1.2,1.2,0,0,1,176,30a.91.91,0,0,1,1.27,0A1.11,1.11,0,0,1,177.46,30.77Z"/><path class="a" d="M190.7,35.35a3.71,3.71,0,0,1-.22,1.31,2.89,2.89,0,0,1-.64,1,2.93,2.93,0,0,1-1,.67,3.65,3.65,0,0,1-1.32.23,3.43,3.43,0,0,1-1.31-.24,2.84,2.84,0,0,1-1-.67,2.8,2.8,0,0,1-.64-1,3.64,3.64,0,0,1-.22-1.31,3.75,3.75,0,0,1,.22-1.33,2.77,2.77,0,0,1,.64-1,2.65,2.65,0,0,1,1-.66,3.72,3.72,0,0,1,2.63,0,2.93,2.93,0,0,1,1,.67,2.8,2.8,0,0,1,.64,1A3.73,3.73,0,0,1,190.7,35.35Zm-1.6,0a2.4,2.4,0,0,0-.43-1.53,1.52,1.52,0,0,0-2-.3,1.53,1.53,0,0,0-.56.72,3.1,3.1,0,0,0-.19,1.11,2.83,2.83,0,0,0,.19,1.09,1.62,1.62,0,0,0,.55.72,1.36,1.36,0,0,0,.83.25,1.39,1.39,0,0,0,1.16-.55A2.36,2.36,0,0,0,189.1,35.35Z"/><path class="a" d="M197.11,36.51a1.9,1.9,0,0,1-.32,1.13,2,2,0,0,1-.95.72,4.31,4.31,0,0,1-1.53.24,3.66,3.66,0,0,1-1.48-.27,2.16,2.16,0,0,1-.91-.65,1.38,1.38,0,0,1-.29-.8.61.61,0,0,1,.19-.45.65.65,0,0,1,.47-.19.53.53,0,0,1,.39.13,1.21,1.21,0,0,1,.26.34,1.67,1.67,0,0,0,.59.64,1.76,1.76,0,0,0,.93.21,1.39,1.39,0,0,0,.79-.21.63.63,0,0,0,.31-.49.68.68,0,0,0-.32-.62,4.22,4.22,0,0,0-1.05-.37,8,8,0,0,1-1.35-.43,2.26,2.26,0,0,1-.83-.59,1.36,1.36,0,0,1-.31-.91A1.63,1.63,0,0,1,192,33a2,2,0,0,1,.84-.68,3.3,3.3,0,0,1,1.36-.26,4.7,4.7,0,0,1,1.11.13,2.77,2.77,0,0,1,.83.35,1.54,1.54,0,0,1,.5.48.92.92,0,0,1,.17.52.61.61,0,0,1-.18.45.76.76,0,0,1-.52.17.59.59,0,0,1-.42-.14,2.35,2.35,0,0,1-.4-.42,1.42,1.42,0,0,0-.43-.38,1.35,1.35,0,0,0-.66-.14,1.39,1.39,0,0,0-.73.19.53.53,0,0,0-.28.46.49.49,0,0,0,.21.41,1.68,1.68,0,0,0,.57.27l1,.26a5.19,5.19,0,0,1,1.22.43,2.13,2.13,0,0,1,.71.59A1.34,1.34,0,0,1,197.11,36.51Z"/><path class="a" d="M199.94,33v.19a3.26,3.26,0,0,1,.94-.81,2.24,2.24,0,0,1,1.1-.26,2.47,2.47,0,0,1,1.36.38,2.54,2.54,0,0,1,1,1.11,3.77,3.77,0,0,1,.37,1.73,4.17,4.17,0,0,1-.21,1.36,3.14,3.14,0,0,1-.57,1,2.55,2.55,0,0,1-1.93.87,2.18,2.18,0,0,1-1.15-.28,3.31,3.31,0,0,1-.89-.81v2.41c0,.7-.25,1-.76,1a.62.62,0,0,1-.6-.27,1.68,1.68,0,0,1-.15-.79V33a1,1,0,0,1,.2-.68.72.72,0,0,1,.55-.23.71.71,0,0,1,.55.24A.93.93,0,0,1,199.94,33Zm3.14,2.33a2.76,2.76,0,0,0-.19-1.09,1.67,1.67,0,0,0-.54-.7,1.29,1.29,0,0,0-.76-.24,1.4,1.4,0,0,0-1.11.52,2.25,2.25,0,0,0-.46,1.54,2.22,2.22,0,0,0,.45,1.48,1.4,1.4,0,0,0,1.12.53,1.25,1.25,0,0,0,.74-.23,1.52,1.52,0,0,0,.54-.69A2.73,2.73,0,0,0,203.08,35.32Z"/><path class="a" d="M206.78,31.35a.84.84,0,0,1-.57-.2.73.73,0,0,1-.24-.58.71.71,0,0,1,.24-.56.8.8,0,0,1,.57-.22.81.81,0,0,1,.55.2.7.7,0,0,1,.24.58.72.72,0,0,1-.24.57A.79.79,0,0,1,206.78,31.35Zm.79,1.65v4.63a1,1,0,0,1-.23.72.79.79,0,0,1-1.15,0,1.05,1.05,0,0,1-.22-.72V33.05a1,1,0,0,1,.22-.72.73.73,0,0,1,.57-.24.77.77,0,0,1,.58.24A1,1,0,0,1,207.57,33Z"/><path class="a" d="M209.31,32.24h.17v-1c0-.25,0-.46,0-.6a1.06,1.06,0,0,1,.12-.38.7.7,0,0,1,.27-.27.76.76,0,0,1,.39-.1.8.8,0,0,1,.55.23.66.66,0,0,1,.21.37,3.48,3.48,0,0,1,0,.63v1.09h.59a.74.74,0,0,1,.52.16.51.51,0,0,1,.18.41.47.47,0,0,1-.26.45,1.59,1.59,0,0,1-.73.13h-.3v2.94a4.3,4.3,0,0,0,0,.58.62.62,0,0,0,.14.33.5.5,0,0,0,.37.12,1.52,1.52,0,0,0,.38,0,2.33,2.33,0,0,1,.38-.05.47.47,0,0,1,.35.16.52.52,0,0,1,.15.38.63.63,0,0,1-.42.59,2.77,2.77,0,0,1-1.21.21,2.19,2.19,0,0,1-1.14-.25,1.17,1.17,0,0,1-.51-.7,4.74,4.74,0,0,1-.12-1.19V33.39h-.21a.79.79,0,0,1-.52-.16.55.55,0,0,1,0-.83A.85.85,0,0,1,209.31,32.24Z"/><path class="a" d="M217.51,37.7a5,5,0,0,1-1.12.67,3.16,3.16,0,0,1-1.22.23,2.32,2.32,0,0,1-1.08-.24,1.92,1.92,0,0,1-.72-.66,1.8,1.8,0,0,1-.25-.91,1.62,1.62,0,0,1,.42-1.12,2.18,2.18,0,0,1,1.14-.62l.76-.15,1-.23.94-.25a1.69,1.69,0,0,0-.26-.93,1.12,1.12,0,0,0-.93-.29,1.86,1.86,0,0,0-.92.17,1.43,1.43,0,0,0-.53.51,4.35,4.35,0,0,1-.31.44c-.06.08-.19.11-.39.11a.69.69,0,0,1-.46-.17.57.57,0,0,1-.2-.44,1.34,1.34,0,0,1,.3-.82,2.1,2.1,0,0,1,.93-.66,4.24,4.24,0,0,1,1.58-.26,4.54,4.54,0,0,1,1.65.25,1.56,1.56,0,0,1,.86.79,3.56,3.56,0,0,1,.25,1.43c0,.37,0,.69,0,1s0,.56,0,.88a3.23,3.23,0,0,0,.15.94,2.8,2.8,0,0,1,.15.63.59.59,0,0,1-.23.45.79.79,0,0,1-.52.2.72.72,0,0,1-.49-.23A3.73,3.73,0,0,1,217.51,37.7Zm-.1-2.32a7,7,0,0,1-1,.27l-.93.22a1.23,1.23,0,0,0-.49.26.69.69,0,0,0-.23.55.8.8,0,0,0,.27.61,1,1,0,0,0,.72.26,1.87,1.87,0,0,0,.88-.21,1.46,1.46,0,0,0,.59-.53,2.55,2.55,0,0,0,.22-1.2Z"/><path class="a" d="M220.6,37.63V30.69a1.11,1.11,0,0,1,.21-.73.75.75,0,0,1,.58-.24A.78.78,0,0,1,222,30a1.08,1.08,0,0,1,.22.73v6.94a1.06,1.06,0,0,1-.23.73.8.8,0,0,1-1.15,0A1.05,1.05,0,0,1,220.6,37.63Z"/><path class="a" d="M228.67,30.77V37h3.52a.91.91,0,0,1,.65.21.66.66,0,0,1,.23.51.71.71,0,0,1-.22.52,1,1,0,0,1-.66.19H228a1.08,1.08,0,0,1-.81-.25,1.11,1.11,0,0,1-.25-.81V30.77a1.2,1.2,0,0,1,.23-.79.89.89,0,0,1,1.26,0A1.07,1.07,0,0,1,228.67,30.77Z"/><path class="a" d="M234.91,31.35a.86.86,0,0,1-.57-.2.73.73,0,0,1-.24-.58.71.71,0,0,1,.24-.56.8.8,0,0,1,.57-.22.81.81,0,0,1,.55.2.7.7,0,0,1,.24.58.72.72,0,0,1-.24.57A.79.79,0,0,1,234.91,31.35ZM235.7,33v4.63a1,1,0,0,1-.23.72.74.74,0,0,1-.58.25.76.76,0,0,1-.57-.25,1.05,1.05,0,0,1-.22-.72V33.05a1,1,0,0,1,.22-.72.75.75,0,0,1,.57-.24.77.77,0,0,1,.58.24A1,1,0,0,1,235.7,33Z"/><path class="a" d="M238.83,30.63v2.44a3.62,3.62,0,0,1,.92-.71,2.4,2.4,0,0,1,1.16-.25,2.62,2.62,0,0,1,1.4.37,2.53,2.53,0,0,1,.93,1.1,4.06,4.06,0,0,1,.33,1.7,4.38,4.38,0,0,1-.19,1.34,3.24,3.24,0,0,1-.53,1.05,2.62,2.62,0,0,1-.86.69,2.66,2.66,0,0,1-1.79.15,2.25,2.25,0,0,1-.56-.23,3.31,3.31,0,0,1-.39-.3c-.1-.1-.25-.25-.42-.45v.15a1,1,0,0,1-.22.69.73.73,0,0,1-.55.23.68.68,0,0,1-.54-.23,1,1,0,0,1-.2-.69v-7a1.21,1.21,0,0,1,.19-.74.68.68,0,0,1,.55-.24.69.69,0,0,1,.57.23A1.06,1.06,0,0,1,238.83,30.63Zm.07,4.75a2.21,2.21,0,0,0,.44,1.47,1.43,1.43,0,0,0,1.15.51,1.32,1.32,0,0,0,1-.52,2.3,2.3,0,0,0,.43-1.51,3,3,0,0,0-.18-1.09,1.56,1.56,0,0,0-.51-.7,1.27,1.27,0,0,0-.78-.25,1.37,1.37,0,0,0-.82.25,1.65,1.65,0,0,0-.56.72A2.73,2.73,0,0,0,238.9,35.38Z"/><path class="a" d="M246.44,36.29v1.34a1.06,1.06,0,0,1-.23.73.77.77,0,0,1-.58.24.72.72,0,0,1-.57-.25,1,1,0,0,1-.22-.72V33.17q0-1.08.78-1.08a.64.64,0,0,1,.57.26,1.39,1.39,0,0,1,.2.74,2.46,2.46,0,0,1,.59-.74,1.18,1.18,0,0,1,.8-.26,2.05,2.05,0,0,1,1,.26.73.73,0,0,1,.47.66.63.63,0,0,1-.2.49.65.65,0,0,1-.43.19,2.32,2.32,0,0,1-.43-.11,2,2,0,0,0-.59-.11.85.85,0,0,0-.58.19,1.12,1.12,0,0,0-.34.54,3.44,3.44,0,0,0-.17.87A10.7,10.7,0,0,0,246.44,36.29Z"/><path class="a" d="M253.85,37.7a5,5,0,0,1-1.12.67,3.16,3.16,0,0,1-1.22.23,2.32,2.32,0,0,1-1.08-.24,1.92,1.92,0,0,1-.72-.66,1.8,1.8,0,0,1-.25-.91,1.62,1.62,0,0,1,.42-1.12,2.18,2.18,0,0,1,1.14-.62l.76-.15,1-.23.94-.25a1.69,1.69,0,0,0-.26-.93,1.12,1.12,0,0,0-.93-.29,1.86,1.86,0,0,0-.92.17,1.43,1.43,0,0,0-.53.51,4.35,4.35,0,0,1-.31.44c-.06.08-.19.11-.39.11a.69.69,0,0,1-.46-.17.57.57,0,0,1-.2-.44,1.34,1.34,0,0,1,.3-.82,2.1,2.1,0,0,1,.93-.66,4.24,4.24,0,0,1,1.58-.26,4.54,4.54,0,0,1,1.65.25,1.56,1.56,0,0,1,.86.79,3.56,3.56,0,0,1,.25,1.43c0,.37,0,.69,0,1s0,.56,0,.88a3.23,3.23,0,0,0,.15.94,2.8,2.8,0,0,1,.15.63.59.59,0,0,1-.23.45.79.79,0,0,1-.52.2.72.72,0,0,1-.49-.23A3.73,3.73,0,0,1,253.85,37.7Zm-.1-2.32a7,7,0,0,1-1,.27l-.93.22a1.23,1.23,0,0,0-.49.26.69.69,0,0,0-.23.55.8.8,0,0,0,.27.61,1,1,0,0,0,.72.26,1.87,1.87,0,0,0,.88-.21,1.46,1.46,0,0,0,.59-.53,2.55,2.55,0,0,0,.22-1.2Z"/><path class="a" d="M258.53,36.29v1.34a1.06,1.06,0,0,1-.23.73.77.77,0,0,1-.58.24.72.72,0,0,1-.57-.25,1,1,0,0,1-.22-.72V33.17q0-1.08.78-1.08a.65.65,0,0,1,.57.26,1.31,1.31,0,0,1,.19.74,2.81,2.81,0,0,1,.59-.74,1.21,1.21,0,0,1,.81-.26,2.08,2.08,0,0,1,1,.26.75.75,0,0,1,.47.66.67.67,0,0,1-.64.68,2.11,2.11,0,0,1-.42-.11,2.07,2.07,0,0,0-.6-.11.84.84,0,0,0-.57.19,1.21,1.21,0,0,0-.35.54,4.62,4.62,0,0,0-.17.87C258.54,35.4,258.53,35.81,258.53,36.29Z"/><path class="a" d="M263.67,38.8l.15-.36-2-5a1.83,1.83,0,0,1-.18-.62.75.75,0,0,1,.1-.38.78.78,0,0,1,.29-.28.79.79,0,0,1,.39-.11.65.65,0,0,1,.52.22,2.05,2.05,0,0,1,.31.63l1.35,3.94,1.29-3.66a6.57,6.57,0,0,1,.27-.7.81.81,0,0,1,.26-.34.7.7,0,0,1,.39-.09.74.74,0,0,1,.35.1.72.72,0,0,1,.26.26.73.73,0,0,1,.09.35c0,.07,0,.18-.08.31a3.38,3.38,0,0,1-.13.42L265.25,39a6.41,6.41,0,0,1-.53,1.13,1.65,1.65,0,0,1-.68.63,2.51,2.51,0,0,1-1.15.22,2.78,2.78,0,0,1-1.05-.15.55.55,0,0,1-.35-.56.54.54,0,0,1,.16-.42.73.73,0,0,1,.5-.15,1.07,1.07,0,0,1,.25,0,.92.92,0,0,0,.26,0,1,1,0,0,0,.44-.08.78.78,0,0,0,.28-.29A3.59,3.59,0,0,0,263.67,38.8Z"/></svg>